<svg width="100" height="100" viewBox="0 0 100 100" fill="none" xmlns="http://www.w3.org/2000/svg">
<rect x="10" y="10" width="80" height="80" rx="10" fill="#FDF3ED"/>
<path d="M26.7451 30.2295H71.72C72.0045 30.2295 72.2361 30.4611 72.2361 30.7456V33.3059H26.2295V30.7456C26.2295 30.4611 26.4611 30.2295 26.7451 30.2295ZM48.9519 63.4672H26.7451C26.4611 63.4672 26.2295 63.2356 26.2295 62.9511V35.5349H72.2361V39.7776C72.2361 40.3928 72.7353 40.8926 73.3506 40.8926C73.9659 40.8926 74.465 40.3928 74.465 39.7776V30.7456C74.465 29.2317 73.2339 28 71.72 28H26.7451C25.2316 28 24 29.2317 24 30.7456V62.9511C24 64.4651 25.2316 65.6968 26.7451 65.6968H48.9519C49.5671 65.6968 50.0664 65.1976 50.0664 64.5823C50.0664 63.9665 49.5671 63.4672 48.9519 63.4672Z" fill="#EF7F3C"/>
<path d="M69.74 32.7802H70.1198C70.7351 32.7802 71.2343 32.281 71.2343 31.6657C71.2343 31.0505 70.7351 30.5513 70.1198 30.5513H69.74C69.1247 30.5513 68.6255 31.0505 68.6255 31.6657C68.6255 32.281 69.1247 32.7802 69.74 32.7802Z" fill="#EF7F3C"/>
<path d="M65.9352 32.7802H66.314C66.9292 32.7802 67.4285 32.281 67.4285 31.6657C67.4285 31.0505 66.9292 30.5513 66.314 30.5513H65.9352C65.3194 30.5513 64.8202 31.0505 64.8202 31.6657C64.8202 32.281 65.3194 32.7802 65.9352 32.7802Z" fill="#EF7F3C"/>
<path d="M62.1294 32.7802H62.5093C63.1246 32.7802 63.6238 32.281 63.6238 31.6657C63.6238 31.0505 63.1246 30.5513 62.5093 30.5513H62.1294C61.5141 30.5513 61.015 31.0505 61.015 31.6657C61.015 32.281 61.5141 32.7802 62.1294 32.7802Z" fill="#EF7F3C"/>
<path d="M65.5312 60.662C63.5071 60.662 61.8607 59.0151 61.8607 56.991C61.8607 54.967 63.5071 53.3206 65.5312 53.3206C67.5552 53.3206 69.2022 54.967 69.2022 56.991C69.2022 59.0151 67.5552 60.662 65.5312 60.662ZM65.5312 51.0911C62.2776 51.0911 59.6312 53.7375 59.6312 56.991C59.6312 60.2446 62.2776 62.8915 65.5312 62.8915C68.7847 62.8915 71.4311 60.2446 71.4311 56.991C71.4311 53.7375 68.7847 51.0911 65.5312 51.0911Z" fill="#EF7F3C"/>
<path d="M80.219 58.95C80.219 59.2846 79.947 59.5566 79.6124 59.5566H77.0118C76.9982 59.5566 76.9851 59.5604 76.9709 59.561C76.9224 59.5626 76.8755 59.5675 76.8281 59.5751C76.8025 59.5795 76.778 59.5844 76.7529 59.5904C76.7071 59.6013 76.663 59.6149 76.6194 59.6318C76.5949 59.6411 76.5709 59.6503 76.5475 59.6612C76.5066 59.6803 76.4674 59.7016 76.4287 59.7255C76.4058 59.7397 76.384 59.7539 76.3622 59.7691C76.3268 59.7947 76.2935 59.8231 76.2608 59.8531C76.2401 59.8721 76.2194 59.8912 76.2003 59.9124C76.172 59.9419 76.1469 59.9735 76.1219 60.0067C76.1022 60.0334 76.0837 60.0602 76.0657 60.0885C76.0472 60.1196 76.0303 60.1512 76.014 60.1844C75.9971 60.2193 75.9818 60.2553 75.9681 60.2929C75.9622 60.3087 75.9534 60.3228 75.948 60.3392C75.7883 60.8509 75.572 61.373 75.306 61.8929C75.2946 61.9147 75.2891 61.9376 75.2793 61.9599C75.2717 61.9779 75.2657 61.9948 75.2592 62.0128C75.2139 62.1332 75.1899 62.2564 75.1878 62.3801C75.1872 62.3965 75.1883 62.4123 75.1888 62.4292C75.1921 62.5556 75.2156 62.6793 75.2602 62.797C75.2668 62.8139 75.2739 62.8292 75.2815 62.8455C75.3333 62.9643 75.4047 63.0733 75.4962 63.1687C75.5022 63.1752 75.5039 63.1834 75.5099 63.19L77.3459 65.0265C77.4609 65.1404 77.5235 65.293 77.5235 65.4549C77.5235 65.6168 77.4609 65.7688 77.3459 65.8838L74.5703 68.6588C74.342 68.8883 73.9425 68.8883 73.713 68.6588L71.8672 66.8141C71.8618 66.8081 71.8536 66.8064 71.8476 66.8005C71.7511 66.7084 71.641 66.6358 71.5217 66.5841C71.5059 66.5775 71.4912 66.5705 71.4754 66.5645C71.3576 66.5198 71.2334 66.4958 71.1064 66.4925C71.0895 66.492 71.0737 66.4915 71.0568 66.492C70.9342 66.4942 70.8116 66.5181 70.6917 66.5628C70.6726 66.5699 70.6546 66.5765 70.6361 66.5846C70.6132 66.595 70.5898 66.6004 70.5669 66.6124C70.0808 66.8631 69.5587 67.08 69.0159 67.255C69.0006 67.2604 68.9875 67.2686 68.9723 67.2746C68.9363 67.2877 68.9014 67.3035 68.8671 67.3204C68.8344 67.3367 68.8022 67.3531 68.7717 67.3727C68.7423 67.3907 68.715 67.4108 68.6878 67.4315C68.6567 67.455 68.6267 67.4784 68.599 67.5046C68.575 67.5269 68.5532 67.5514 68.5314 67.5759C68.5058 67.6043 68.4807 67.6326 68.4584 67.6637C68.4382 67.6915 68.4207 67.7209 68.4033 67.7503C68.3848 67.7819 68.3668 67.813 68.351 67.8463C68.3363 67.8779 68.3243 67.9111 68.3123 67.9444C68.2998 67.9798 68.2883 68.0147 68.2791 68.0506C68.2714 68.0833 68.266 68.1166 68.2605 68.1504C68.2545 68.1907 68.2502 68.2305 68.2485 68.2719C68.248 68.2866 68.2442 68.3008 68.2442 68.316V70.921C68.2442 71.2556 67.9717 71.5276 67.6371 71.5276H63.7138C63.3792 71.5276 63.1072 71.2556 63.1072 70.921V68.3024C63.1072 68.2861 63.1034 68.2714 63.1023 68.255C63.1007 68.2141 63.0963 68.1738 63.0903 68.1335C63.0849 68.0997 63.0789 68.0664 63.0707 68.0332C63.062 67.9972 63.0505 67.9629 63.038 67.928C63.026 67.8942 63.0135 67.861 62.9982 67.8288C62.983 67.7961 62.965 67.7656 62.947 67.7345C62.929 67.7046 62.9105 67.6751 62.8903 67.6468C62.868 67.6163 62.8434 67.5879 62.8184 67.5601C62.796 67.5356 62.7742 67.5111 62.7497 67.4888C62.7219 67.4626 62.6919 67.4391 62.6614 67.4157C62.6336 67.395 62.6064 67.3754 62.5769 67.3569C62.5459 67.3378 62.5137 67.3209 62.4805 67.3046C62.4467 67.2882 62.4118 67.273 62.3758 67.2599C62.36 67.2539 62.3453 67.2446 62.3284 67.2392C61.8211 67.0795 61.3039 66.8648 60.7894 66.6004C60.7676 66.5895 60.7447 66.5841 60.7224 66.5743C60.7044 66.5667 60.6869 66.5601 60.6684 66.5536C60.5485 66.5089 60.4259 66.4849 60.3027 66.4822C60.2858 66.4822 60.2695 66.4833 60.2521 66.4833C60.1256 66.4871 60.0019 66.5105 59.8842 66.5552C59.8684 66.5612 59.8537 66.5683 59.8379 66.5754C59.718 66.6271 59.6079 66.6996 59.5114 66.7917C59.506 66.7972 59.4983 66.7988 59.4923 66.8043L57.6378 68.6588C57.4095 68.8883 57.01 68.8883 56.7806 68.6588L54.0055 65.8827C53.8905 65.7688 53.8273 65.6168 53.8273 65.4549C53.8273 65.293 53.8905 65.1405 54.0055 65.026L55.8639 63.1665C55.8699 63.1605 55.8715 63.1529 55.877 63.1469C55.9691 63.0505 56.041 62.9409 56.0933 62.821C56.0998 62.8052 56.107 62.7905 56.1135 62.7747C56.1582 62.657 56.1816 62.5327 56.1849 62.4057C56.1854 62.3888 56.1865 62.373 56.1865 62.3567C56.1838 62.2335 56.1598 62.1114 56.1151 61.9915C56.108 61.9719 56.1015 61.954 56.0933 61.9349C56.084 61.9136 56.0786 61.8913 56.0677 61.8706C55.8132 61.3724 55.5996 60.8558 55.4333 60.3332C55.4284 60.3168 55.4192 60.3032 55.4137 60.2874C55.4001 60.2509 55.3849 60.216 55.3674 60.1811C55.3516 60.149 55.3352 60.1174 55.3167 60.0874C55.2976 60.0574 55.2775 60.0291 55.2562 60.0013C55.2334 59.9708 55.2099 59.9408 55.1837 59.9135C55.1619 59.8896 55.138 59.8678 55.1134 59.846C55.0846 59.8198 55.0557 59.7947 55.0241 59.7718C54.9979 59.7528 54.9701 59.7359 54.9423 59.719C54.9091 59.6988 54.8753 59.6798 54.8399 59.6634C54.811 59.6498 54.781 59.6389 54.7505 59.6274C54.7123 59.6138 54.6742 59.6013 54.6344 59.5915C54.605 59.5844 54.575 59.5789 54.5445 59.574C54.5014 59.5675 54.4578 59.5626 54.4137 59.561C54.3995 59.5604 54.3859 59.5566 54.3712 59.5566H51.7433C51.4087 59.5566 51.1367 59.2846 51.1367 58.95V55.0224C51.1367 54.6877 51.4087 54.4158 51.7433 54.4158H54.3712C54.4796 54.4158 54.5826 54.3956 54.6818 54.3662C54.702 54.3602 54.7216 54.3548 54.7412 54.3482C54.8377 54.3139 54.9292 54.2692 55.0115 54.2109C55.0235 54.2027 55.0333 54.1923 55.0442 54.1842C55.1189 54.1269 55.1854 54.0605 55.2437 53.9869C55.2552 53.9722 55.2677 53.9602 55.278 53.9449C55.338 53.861 55.3843 53.7673 55.4192 53.6681C55.4224 53.6577 55.4301 53.6501 55.4333 53.6392C55.5968 53.1264 55.8099 52.6103 56.0683 52.1051C56.0797 52.0833 56.0846 52.0609 56.0944 52.0391C56.102 52.0212 56.108 52.0043 56.1146 51.9868C56.1603 51.8658 56.1843 51.7421 56.1865 51.6179C56.1871 51.6021 56.186 51.5873 56.1854 51.5715C56.1821 51.444 56.1582 51.3192 56.1129 51.201C56.1069 51.1852 56.1004 51.171 56.0933 51.1552C56.0415 51.0353 55.9691 50.9252 55.877 50.8293C55.871 50.8233 55.8699 50.8151 55.8639 50.8097L54.0055 48.9502C53.8905 48.8363 53.8273 48.6843 53.8273 48.5224C53.8273 48.3605 53.8905 48.2079 54.0055 48.0935L56.7811 45.3179C57.0089 45.089 57.4089 45.089 57.6383 45.3179L59.4923 47.1725C59.5022 47.1818 59.5147 47.1845 59.5245 47.1937C59.6112 47.2744 59.7087 47.3371 59.8139 47.3861C59.846 47.4008 59.876 47.415 59.9087 47.4264C60.0281 47.469 60.1513 47.4984 60.2788 47.4984L60.2815 47.4989C60.4063 47.4989 60.5311 47.47 60.6537 47.4264C60.6788 47.4172 60.7028 47.4101 60.7273 47.3992C60.7475 47.3905 60.7692 47.3866 60.7894 47.3763C61.3039 47.112 61.8211 46.8973 62.3284 46.7376C62.3453 46.7321 62.3601 46.7229 62.3764 46.7169C62.4118 46.7038 62.4467 46.6891 62.4805 46.6722C62.5137 46.6558 62.5459 46.6389 62.5769 46.6199C62.6064 46.6019 62.6336 46.5817 62.6609 46.5615C62.6919 46.5381 62.7214 46.5141 62.7497 46.488C62.7742 46.4656 62.796 46.4417 62.8184 46.4166C62.8434 46.3888 62.868 46.3605 62.8903 46.3299C62.9105 46.3016 62.929 46.2727 62.9464 46.2428C62.965 46.2117 62.983 46.1806 62.9982 46.1479C63.0135 46.1158 63.026 46.0825 63.038 46.0487C63.0505 46.0139 63.062 45.9795 63.0707 45.9436C63.0789 45.9103 63.0849 45.8771 63.0903 45.8433C63.0963 45.8029 63.1007 45.7626 63.1023 45.7218C63.1034 45.706 63.1072 45.6907 63.1072 45.6743V43.0519C63.1072 42.7173 63.3792 42.4448 63.7138 42.4448H67.6371C67.9717 42.4448 68.2442 42.7173 68.2442 43.0519V45.6607C68.2442 45.676 68.248 45.6901 68.2485 45.7054C68.2502 45.7463 68.2545 45.7866 68.2605 45.8269C68.266 45.8602 68.2714 45.8934 68.2791 45.9261C68.2883 45.9621 68.2998 45.9975 68.3123 46.0324C68.3243 46.0662 68.3363 46.0989 68.351 46.1305C68.3668 46.1637 68.3848 46.1948 68.4033 46.2264C68.4207 46.2564 68.4382 46.2852 68.4584 46.313C68.4807 46.3441 68.5058 46.3724 68.5308 46.4008C68.5532 46.4253 68.575 46.4498 68.599 46.4722C68.6267 46.4983 68.6567 46.5223 68.6878 46.5457C68.715 46.5665 68.7423 46.5861 68.7712 46.6041C68.8022 46.6237 68.8344 46.64 68.8671 46.6564C68.9014 46.6733 68.9363 46.6891 68.9723 46.7021C68.9875 46.7081 69.0006 46.7169 69.0159 46.7218C69.5587 46.8967 70.0808 47.1136 70.5669 47.3648C70.5876 47.3752 70.6099 47.379 70.6307 47.3883C70.6563 47.3997 70.6813 47.4079 70.7075 47.4172C70.8296 47.4608 70.9538 47.4896 71.0786 47.4896L71.0792 47.4891C71.0797 47.4891 71.0803 47.4891 71.0808 47.4891C71.2083 47.4891 71.3315 47.4597 71.4508 47.4172C71.4835 47.4057 71.5135 47.3916 71.5456 47.3769C71.6514 47.3278 71.7495 47.2646 71.8361 47.1839C71.8454 47.1747 71.8579 47.1719 71.8672 47.1632L73.7136 45.3179C73.9414 45.089 74.3414 45.089 74.5708 45.3179L77.3459 48.094C77.4609 48.2079 77.5235 48.3605 77.5235 48.5224C77.5235 48.6843 77.4609 48.8363 77.3459 48.9513L75.5099 50.7873C75.5039 50.7928 75.5022 50.801 75.4967 50.807C75.4046 50.9034 75.3322 51.0129 75.2804 51.1328C75.2733 51.1486 75.2662 51.1634 75.2602 51.1792C75.2156 51.2974 75.1916 51.4217 75.1883 51.5487C75.1883 51.565 75.1872 51.5803 75.1878 51.5971C75.1899 51.7203 75.2139 51.844 75.2592 51.9645C75.2657 51.9825 75.2722 51.9994 75.2798 52.0168C75.2896 52.0402 75.2957 52.0642 75.3076 52.0871C75.5605 52.576 75.7769 53.0991 75.9502 53.6414C75.9535 53.6517 75.9611 53.6594 75.9649 53.6697C75.9998 53.7689 76.0461 53.8621 76.1066 53.9466C76.1169 53.9613 76.1289 53.9733 76.1398 53.9875C76.1987 54.0616 76.2652 54.128 76.3404 54.1853C76.3513 54.1934 76.3605 54.2032 76.372 54.2114C76.4543 54.2697 76.5458 54.3139 76.6423 54.3482C76.6625 54.3553 76.6821 54.3608 76.7023 54.3668C76.8014 54.3956 76.9039 54.4158 77.0118 54.4158H79.6124C79.947 54.4158 80.219 54.6877 80.219 55.0224V58.95ZM79.6124 52.1863H77.79C77.7404 52.061 77.6898 51.9367 77.6363 51.8135L78.9225 50.5279C79.4577 49.9927 79.753 49.2799 79.753 48.5224C79.753 47.7643 79.4577 47.052 78.9225 46.5169L76.148 43.7418C75.0766 42.6704 73.2062 42.6704 72.137 43.7418L70.8415 45.0361C70.72 44.9838 70.5974 44.9331 70.4732 44.8841V43.0519C70.4732 41.4878 69.2011 40.2158 67.6371 40.2158H63.7138C62.1502 40.2158 60.8777 41.4878 60.8777 43.0519V44.8961C60.7578 44.9435 60.639 44.9942 60.5191 45.046L59.215 43.7418C58.1441 42.6704 56.2737 42.6704 55.2039 43.7418L52.4289 46.5163C51.8937 47.052 51.5983 47.7643 51.5983 48.5224C51.5983 49.2799 51.8937 49.9928 52.4289 50.5274L53.7385 51.8364C53.6878 51.953 53.6393 52.0691 53.593 52.1863H51.7433C50.1792 52.1863 48.9072 53.4583 48.9072 55.0224V58.95C48.9072 60.5141 50.1792 61.7861 51.7433 61.7861H53.5924C53.6393 61.9049 53.6883 62.0215 53.739 62.1393L52.4289 63.4488C51.8937 63.9845 51.5983 64.6968 51.5983 65.4549C51.5983 66.2124 51.8937 66.9253 52.4289 67.4599L55.2034 70.2349C55.7391 70.7706 56.4519 71.066 57.2094 71.066C57.967 71.066 58.6798 70.7706 59.2144 70.2349L60.5191 68.9308C60.639 68.9825 60.7578 69.0332 60.8777 69.0807V70.921C60.8777 72.4846 62.1502 73.7571 63.7138 73.7571H67.6371C69.2011 73.7571 70.4732 72.4846 70.4732 70.921V69.0926C70.5974 69.0436 70.72 68.9934 70.8415 68.9406L72.1359 70.2349C72.6716 70.7706 73.3844 71.066 74.142 71.066C74.8995 71.066 75.6123 70.7706 76.1469 70.2349L78.9225 67.4604C79.4577 66.9253 79.753 66.2124 79.753 65.4549C79.753 64.6968 79.4577 63.9846 78.9225 63.4494L77.6353 62.1627C77.6903 62.0368 77.7426 61.912 77.7922 61.7861H79.6124C81.1765 61.7861 82.4485 60.5141 82.4485 58.95V55.0224C82.4485 53.4583 81.1765 52.1863 79.6124 52.1863Z" fill="#EF7F3C"/>
</svg>
