<svg width="100" height="100" viewBox="0 0 100 100" fill="none" xmlns="http://www.w3.org/2000/svg">
<rect x="10" y="10" width="80" height="80" rx="10" fill="#FDF3ED"/>
<path d="M71.7404 53.3021C71.7404 60.0584 68.4688 66.5305 63.0525 70.5638C57.7299 74.5277 50.6596 75.7967 44.2564 74.0964C37.8201 72.3874 32.4175 67.6364 29.8779 61.4832C27.9365 56.7785 28.2619 51.8073 28.2619 46.8365C28.2619 46.0324 28.2619 45.2283 28.2619 44.4242C28.2619 44.0843 29.3613 44.2721 29.6339 44.2721H71.3494C71.7735 44.2721 71.7404 44.2253 71.7404 44.6362C71.7404 47.525 71.7404 50.4138 71.7404 53.3021ZM34.8508 40.0219C34.8508 33.1438 39.5197 26.5632 46.2358 24.7412C52.817 22.9562 59.673 26.2008 63.0228 32.0191C64.6338 34.8176 65.1719 37.8314 65.1719 41.0204C65.1719 41.1146 65.2028 42.0189 65.146 42.0189H60.9249C60.6985 42.0189 60.8236 41.3784 60.8236 41.1978C60.8236 40.4035 60.8197 39.6115 60.7492 38.8195C60.6628 37.8512 60.5895 36.6197 60.1588 35.7324C59.7507 34.892 58.5087 34.9096 58.1209 35.7583C57.9249 36.1874 58.0863 36.5906 58.1876 37.0196C58.3082 37.5318 58.3969 38.0512 58.4586 38.5733C58.5561 39.3973 58.5703 40.2229 58.5703 41.0512C58.5703 41.1355 58.5886 42.0189 58.555 42.0189H41.5053C41.2321 42.0189 41.681 37.881 41.7449 37.5522C42.1778 35.3166 43.1895 33.0507 45.1811 31.7966C46.3664 31.0509 47.7631 30.7579 49.1511 30.7579C50.3964 30.7579 51.6637 30.6885 52.8837 30.9859C53.6399 31.1704 54.569 31.8798 55.3214 31.372C56.2175 30.7672 55.7736 29.6839 54.9518 29.3181C53.3716 28.6154 51.7127 28.5047 50.0114 28.5047C47.328 28.5047 44.7735 28.9612 42.7269 30.8377C39.6695 33.64 39.2091 37.8474 39.2091 41.7573C39.2091 42.2183 38.698 42.0189 38.2926 42.0189C37.4929 42.0189 36.6937 42.0189 35.894 42.0189C35.6797 42.0189 34.8508 42.1566 34.8508 41.8978C34.8508 41.2727 34.8508 40.6475 34.8508 40.0219ZM72.8695 42.0189C71.096 42.0189 69.3225 42.0189 67.5545 42.0189C67.2681 42.0189 67.4279 40.349 67.4224 40.0219C67.4224 38.2665 67.1674 36.5134 66.6645 34.8314C64.7341 28.378 59.1613 23.1236 52.4111 22.1636C45.7556 21.2169 39.2355 24.4493 35.5905 30.0297C33.6981 32.9273 32.6406 36.3438 32.5993 39.807C32.5954 40.1425 32.6929 42.0189 32.5156 42.0189H27.1406C26.1035 42.0189 26.0087 42.9663 26.0087 43.7401C26.0087 45.914 26.0087 48.0884 26.0087 50.2623C26.0087 52.1768 25.9449 54.1062 26.1624 56.0113C26.5419 59.3424 27.6385 62.5792 29.3585 65.457C32.7645 71.1558 38.5283 75.2718 45.0396 76.5931C51.5244 77.9089 58.4492 76.5655 63.8721 72.7509C69.3225 68.9148 73.0017 62.8386 73.8168 56.2162C74.0536 54.2879 73.9931 52.3387 73.9931 50.4C73.9931 48.2057 73.9931 46.0115 73.9931 43.8172C73.9931 43.0307 73.949 42.0189 72.8695 42.0189Z" fill="#EF7F3C"/>
<path d="M37.2371 62.6928C37.2371 61.8017 37.2371 60.9105 37.2371 60.0194C38.2218 60.8466 39.4958 61.2955 40.7835 61.2333C41.9776 61.176 43.3429 60.1406 42.0337 59.0528C40.9889 58.1842 39.5431 57.9958 38.4719 57.1499C37.497 56.3799 37.0641 55.2486 37.2178 54.0193C37.5758 51.1525 41.0456 50.7614 43.3369 51.0561C43.5021 51.0776 44.8801 51.2731 44.8801 51.4449V53.9306C44.0099 53.3269 42.8676 53.0477 41.8156 53.1006C41.0456 53.1391 39.8554 53.4977 40.0443 54.5001C40.214 55.4001 41.5683 55.8379 42.2904 56.1353C43.2372 56.533 44.2539 57.0353 44.8592 57.8989C46.0031 59.5308 45.3598 61.9212 43.6051 62.793C41.8035 63.6875 39.0188 63.6049 37.2371 62.6928Z" fill="#EF7F3C"/>
<path d="M46.6764 62.6929C46.6764 61.8017 46.6764 60.9106 46.6764 60.0194C47.6612 60.8467 48.9351 61.2956 50.2228 61.2333C51.4174 61.176 52.7822 60.1406 51.4731 59.0528C50.4282 58.1843 48.9825 57.9959 47.9112 57.1499C46.9369 56.3799 46.5034 55.2486 46.6571 54.0193C47.0157 51.152 50.4861 50.7615 52.7767 51.0561C52.942 51.0776 54.3194 51.2731 54.3194 51.445V53.9306C53.4509 53.3259 52.3058 53.0478 51.255 53.1006C50.4855 53.1392 49.2948 53.4977 49.4837 54.5001C49.6539 55.3996 51.0082 55.8385 51.7303 56.1354C52.677 56.533 53.6932 57.0353 54.2985 57.8989C55.4425 59.5309 54.7997 61.9207 53.0444 62.7931C51.2428 63.6886 48.4587 63.6039 46.6764 62.6929Z" fill="#EF7F3C"/>
<path d="M64.2566 63.141C62.4093 63.141 60.5615 63.141 58.7142 63.141C58.5991 63.141 57.123 63.1663 57.123 63.119V51.816C57.123 51.1639 57.0052 51.1634 57.6936 51.1634C57.9084 51.1634 59.8213 51.1088 59.8213 51.2107V60.9401C59.8213 60.9654 61.6807 60.9522 61.8178 60.9522C62.6286 60.9522 63.4393 60.9522 64.25 60.9522C64.2632 60.9522 64.2566 62.9284 64.2566 63.141Z" fill="#EF7F3C"/>
</svg>
